<?xml version="1.0" standalone="no"?>
<!DOCTYPE svg PUBLIC "-//W3C//DTD SVG 20010904//EN"
 "http://www.w3.org/TR/2001/REC-SVG-20010904/DTD/svg10.dtd">
<svg version="1.0" xmlns="http://www.w3.org/2000/svg"
 width="1000.000000pt" height="1000.000000pt" viewBox="0 0 1000.000000 1000.000000"
 preserveAspectRatio="xMidYMid meet">
<metadata>
Created by potrace 1.14, written by Peter Selinger 2001-2017
</metadata>
<g transform="translate(0.000000,1000.000000) scale(0.100000,-0.100000)"
fill="#000000" stroke="none">
<path d="M849 9996 c-2 -2 -26 -7 -54 -10 -119 -15 -138 -19 -246 -56 -52 -18
-96 -36 -97 -41 -2 -5 -8 -7 -13 -3 -5 3 -9 0 -9 -6 0 -6 -4 -8 -10 -5 -5 3
-10 2 -10 -3 0 -5 -11 -14 -25 -20 -40 -18 -154 -113 -161 -134 -3 -10 -9 -18
-14 -18 -26 0 -123 -187 -159 -305 -52 -173 -50 56 -48 -4430 1 -2288 5 -4171
9 -4185 4 -14 9 -41 12 -60 8 -51 13 -72 24 -100 5 -14 10 -29 11 -35 2 -22
46 -131 58 -143 7 -8 11 -17 8 -22 -3 -5 -2 -10 3 -12 4 -1 19 -21 32 -43 116
-191 347 -318 640 -353 79 -10 8343 -9 8415 1 33 4 67 10 75 12 8 2 26 6 40 9
43 8 164 48 177 58 7 6 13 7 13 4 0 -4 13 2 29 13 15 11 31 18 35 14 3 -3 6
-2 6 4 0 5 12 15 27 22 77 35 197 161 253 266 18 33 36 65 40 70 5 6 9 15 10
20 0 6 12 44 25 86 13 42 26 94 29 115 3 21 10 68 15 104 11 77 10 8372 -2
8410 -4 14 -9 43 -12 64 -15 117 -88 292 -161 388 -50 66 -63 79 -129 133 -70
57 -221 131 -307 149 -13 3 -43 10 -67 16 -24 6 -58 14 -75 17 -33 7 -8380 16
-8387 9z"/>
</g>
</svg>
